<?xml version="1.0" encoding="UTF-8" standalone="no"?>
<!DOCTYPE svg PUBLIC "-//W3C//DTD SVG 1.1//EN" "http://www.w3.org/Graphics/SVG/1.1/DTD/svg11.dtd">
<svg width="100%" height="100%" viewBox="0 0 512 512" version="1.1" xmlns="http://www.w3.org/2000/svg" xmlns:xlink="http://www.w3.org/1999/xlink" xml:space="preserve" xmlns:serif="http://www.serif.com/" style="fill-rule:evenodd;clip-rule:evenodd;stroke-miterlimit:1.41421;">
    <g transform="matrix(4.15,0,0,4.15,7,48.5)">
        <path d="M20,30L20,60L60,90L100,60L100,30L80,20L60,30L40,20L20,30Z" style="fill:none;stroke:white;stroke-width:2.41px;"/>
        <path d="M10,25L10,65L60,95L110,65L110,25L80,10L60,25L40,10L10,25Z" style="fill:none;stroke:white;stroke-width:2.41px;"/>
        <path d="M0,20L0,70L60,100L120,70L120,20L80,0L60,19L40,0L0,20Z" style="fill:none;stroke:white;stroke-width:2.41px;"/>
        <path d="M40,10L40,0" style="fill:none;stroke:white;stroke-width:2.41px;"/>
        <path d="M10,25L0,20" style="fill:none;stroke:white;stroke-width:2.41px;"/>
        <path d="M20,30L10,25" style="fill:none;stroke:white;stroke-width:2.41px;"/>
        <path d="M40,20L40,10" style="fill:none;stroke:white;stroke-width:2.41px;"/>
        <path d="M0,70L10,65" style="fill:none;stroke:white;stroke-width:2.41px;"/>
        <path d="M10,65L20,60" style="fill:none;stroke:white;stroke-width:2.41px;"/>
        <path d="M60,95L60,100" style="fill:none;stroke:white;stroke-width:2.41px;"/>
        <g transform="matrix(1,0,0,1,0,-10)">
            <path d="M60,100L60,105" style="fill:none;stroke:white;stroke-width:2.41px;"/>
        </g>
        <path d="M100,60L110,65" style="fill:none;stroke:white;stroke-width:2.41px;"/>
        <g transform="matrix(1,0,0,1,10,0)">
            <path d="M100,65L110,70" style="fill:none;stroke:white;stroke-width:2.41px;"/>
        </g>
        <path d="M100,30L110,25" style="fill:none;stroke:white;stroke-width:2.41px;"/>
        <g transform="matrix(1,0,0,1,10,0)">
            <path d="M100,25L110,20" style="fill:none;stroke:white;stroke-width:2.41px;"/>
        </g>
        <path d="M80,20L80,10" style="fill:none;stroke:white;stroke-width:2.41px;"/>
        <g transform="matrix(1,0,0,1,0,-10)">
            <path d="M80,20L80,10" style="fill:none;stroke:white;stroke-width:2.41px;"/>
        </g>
        <path d="M60,30L60,25" style="fill:none;stroke:white;stroke-width:2.41px;"/>
        <g transform="matrix(1,0,0,1,6.66134e-15,-10)">
            <path d="M60,35L60,29" style="fill:none;stroke:white;stroke-width:2.41px;"/>
        </g>
    </g>
</svg>
