<?xml version="1.0" encoding="UTF-8" standalone="no"?>
<!DOCTYPE svg PUBLIC "-//W3C//DTD SVG 1.1//EN" "http://www.w3.org/Graphics/SVG/1.1/DTD/svg11.dtd">
<svg width="100%" height="100%" viewBox="0 0 209 89" version="1.1" xmlns="http://www.w3.org/2000/svg" xmlns:xlink="http://www.w3.org/1999/xlink" xml:space="preserve" xmlns:serif="http://www.serif.com/" style="fill-rule:evenodd;clip-rule:evenodd;stroke-miterlimit:1.41421;">
    <g transform="matrix(1,0,0,1,-109.112,-29.9661)">
        <path d="M206.252,51.522L208.028,51.522C209.884,51.522 211.308,51.138 212.3,50.37C213.292,49.602 213.788,48.498 213.788,47.058C213.788,45.618 213.292,44.514 212.3,43.746C211.308,42.978 209.884,42.594 208.028,42.594L206.252,42.594L206.252,51.522ZM226.94,71.538L215.228,71.538L206.252,57.618L206.252,71.538L196.844,71.538L196.844,35.346L211.484,35.346C213.5,35.346 215.26,35.642 216.764,36.234C218.268,36.826 219.508,37.634 220.484,38.658C221.46,39.682 222.196,40.866 222.692,42.21C223.188,43.554 223.436,44.994 223.436,46.53C223.436,49.282 222.772,51.514 221.444,53.226C220.116,54.938 218.156,56.098 215.564,56.706L226.94,71.538Z" style="fill-rule:nonzero;"/>
        <path d="M236.108,46.914L236.108,60.786C236.108,63.826 237.58,65.346 240.524,65.346C243.468,65.346 244.94,63.826 244.94,60.786L244.94,46.914L253.628,46.914L253.628,62.466C253.628,65.794 252.532,68.29 250.34,69.954C248.148,71.618 244.876,72.45 240.524,72.45C236.172,72.45 232.9,71.618 230.708,69.954C228.516,68.29 227.42,65.794 227.42,62.466L227.42,46.914L236.108,46.914Z" style="fill-rule:nonzero;"/>
        <path d="M276.764,59.298C276.764,58.53 276.62,57.802 276.332,57.114C276.044,56.426 275.644,55.826 275.132,55.314C274.62,54.802 274.028,54.394 273.356,54.09C272.684,53.786 271.948,53.634 271.148,53.634C270.38,53.634 269.66,53.778 268.988,54.066C268.316,54.354 267.732,54.754 267.236,55.266C266.74,55.778 266.34,56.378 266.036,57.066C265.732,57.754 265.58,58.482 265.58,59.25C265.58,60.018 265.724,60.738 266.012,61.41C266.3,62.082 266.7,62.666 267.212,63.162C267.724,63.658 268.324,64.058 269.012,64.362C269.7,64.666 270.428,64.818 271.196,64.818C271.964,64.818 272.684,64.674 273.356,64.386C274.028,64.098 274.612,63.698 275.108,63.186C275.604,62.674 276.004,62.082 276.308,61.41C276.612,60.738 276.764,60.034 276.764,59.298ZM265.82,31.698L265.82,49.362C267.868,47.218 270.428,46.146 273.5,46.146C275.324,46.146 276.996,46.49 278.516,47.178C280.036,47.866 281.332,48.794 282.404,49.962C283.476,51.13 284.316,52.506 284.924,54.09C285.532,55.674 285.836,57.362 285.836,59.154C285.836,60.978 285.524,62.69 284.9,64.29C284.276,65.89 283.404,67.282 282.284,68.466C281.164,69.65 279.844,70.586 278.324,71.274C276.804,71.962 275.164,72.306 273.404,72.306C270.204,72.306 267.676,71.138 265.82,68.802L265.82,71.538L257.132,71.538L257.132,31.698L265.82,31.698Z" style="fill-rule:nonzero;"/>
        <path d="M296.012,68.178L284.108,46.914L294.188,46.914L300.764,59.538L307.148,46.914L317.132,46.914L297.356,83.826L287.612,83.826L296.012,68.178Z" style="fill-rule:nonzero;"/>
    </g>
    <g transform="matrix(1,0,0,1,-135.438,-43.4002)">
        <path d="M232.59,94.28L232.59,119.384C232.59,120.44 232.534,121.416 232.422,122.312C232.31,123.208 232.126,123.976 231.87,124.616C231.454,125.64 230.886,126.576 230.166,127.424C229.446,128.272 228.606,128.992 227.646,129.584C226.686,130.176 225.622,130.64 224.454,130.976C223.286,131.312 222.062,131.48 220.782,131.48C216.91,131.48 213.758,129.704 211.326,126.152L217.47,119.864C217.63,120.952 217.982,121.816 218.526,122.456C219.07,123.096 219.742,123.416 220.542,123.416C222.302,123.416 223.182,122.024 223.182,119.24L223.182,94.28L232.59,94.28Z" style="fill-rule:nonzero;"/>
        <path d="M245.214,118.04C245.214,118.872 245.366,119.632 245.67,120.32C245.974,121.008 246.374,121.608 246.87,122.12C247.366,122.632 247.958,123.032 248.646,123.32C249.334,123.608 250.062,123.752 250.83,123.752C251.598,123.752 252.326,123.608 253.014,123.32C253.702,123.032 254.294,122.632 254.79,122.12C255.286,121.608 255.686,121.008 255.99,120.32C256.294,119.632 256.446,118.888 256.446,118.088C256.446,117.32 256.294,116.592 255.99,115.904C255.686,115.216 255.286,114.616 254.79,114.104C254.294,113.592 253.702,113.192 253.014,112.904C252.326,112.616 251.598,112.472 250.83,112.472C250.062,112.472 249.334,112.616 248.646,112.904C247.958,113.192 247.366,113.592 246.87,114.104C246.374,114.616 245.974,115.208 245.67,115.88C245.366,116.552 245.214,117.272 245.214,118.04ZM236.046,117.944C236.046,116.12 236.414,114.416 237.15,112.832C237.886,111.248 238.91,109.872 240.222,108.704C241.534,107.536 243.094,106.616 244.902,105.944C246.71,105.272 248.686,104.936 250.83,104.936C252.942,104.936 254.902,105.264 256.71,105.92C258.518,106.576 260.086,107.488 261.414,108.656C262.742,109.824 263.774,111.216 264.51,112.832C265.246,114.448 265.614,116.232 265.614,118.184C265.614,120.136 265.238,121.92 264.486,123.536C263.734,125.152 262.702,126.544 261.39,127.712C260.078,128.88 258.502,129.784 256.662,130.424C254.822,131.064 252.83,131.384 250.686,131.384C248.574,131.384 246.622,131.064 244.83,130.424C243.038,129.784 241.494,128.872 240.198,127.688C238.902,126.504 237.886,125.088 237.15,123.44C236.414,121.792 236.046,119.96 236.046,117.944Z" style="fill-rule:nonzero;"/>
        <path d="M287.838,118.232C287.838,117.464 287.694,116.736 287.406,116.048C287.118,115.36 286.718,114.76 286.206,114.248C285.694,113.736 285.102,113.328 284.43,113.024C283.758,112.72 283.022,112.568 282.222,112.568C281.454,112.568 280.734,112.712 280.062,113C279.39,113.288 278.806,113.688 278.31,114.2C277.814,114.712 277.414,115.312 277.11,116C276.806,116.688 276.654,117.416 276.654,118.184C276.654,118.952 276.798,119.672 277.086,120.344C277.374,121.016 277.774,121.6 278.286,122.096C278.798,122.592 279.398,122.992 280.086,123.296C280.774,123.6 281.502,123.752 282.27,123.752C283.038,123.752 283.758,123.608 284.43,123.32C285.102,123.032 285.686,122.632 286.182,122.12C286.678,121.608 287.078,121.016 287.382,120.344C287.686,119.672 287.838,118.968 287.838,118.232ZM276.894,90.632L276.894,108.296C278.942,106.152 281.502,105.08 284.574,105.08C286.398,105.08 288.07,105.424 289.59,106.112C291.11,106.8 292.406,107.728 293.478,108.896C294.55,110.064 295.39,111.44 295.998,113.024C296.606,114.608 296.91,116.296 296.91,118.088C296.91,119.912 296.598,121.624 295.974,123.224C295.35,124.824 294.478,126.216 293.358,127.4C292.238,128.584 290.918,129.52 289.398,130.208C287.878,130.896 286.238,131.24 284.478,131.24C281.278,131.24 278.75,130.072 276.894,127.736L276.894,130.472L268.206,130.472L268.206,90.632L276.894,90.632Z" style="fill-rule:nonzero;"/>
        <path d="M315.774,112.184C314.174,111.352 312.606,110.936 311.07,110.936C310.27,110.936 309.622,111.096 309.126,111.416C308.63,111.736 308.382,112.168 308.382,112.712C308.382,113 308.422,113.232 308.502,113.408C308.582,113.584 308.758,113.752 309.03,113.912C309.302,114.072 309.702,114.216 310.23,114.344C310.758,114.472 311.454,114.632 312.318,114.824C314.718,115.304 316.51,116.16 317.694,117.392C318.878,118.624 319.47,120.2 319.47,122.12C319.47,123.56 319.182,124.856 318.606,126.008C318.03,127.16 317.23,128.128 316.206,128.912C315.182,129.696 313.95,130.304 312.51,130.736C311.07,131.168 309.486,131.384 307.758,131.384C304.43,131.384 301.15,130.44 297.918,128.552L301.086,122.408C303.518,124.072 305.822,124.904 307.998,124.904C308.798,124.904 309.454,124.728 309.966,124.376C310.478,124.024 310.734,123.576 310.734,123.032C310.734,122.712 310.694,122.448 310.614,122.24C310.534,122.032 310.366,121.84 310.11,121.664C309.854,121.488 309.478,121.328 308.982,121.184C308.486,121.04 307.838,120.888 307.038,120.728C304.35,120.184 302.47,119.376 301.398,118.304C300.326,117.232 299.79,115.752 299.79,113.864C299.79,112.488 300.046,111.248 300.558,110.144C301.07,109.04 301.806,108.104 302.766,107.336C303.726,106.568 304.886,105.976 306.246,105.56C307.606,105.144 309.118,104.936 310.782,104.936C313.502,104.936 316.142,105.464 318.702,106.52L315.774,112.184Z" style="fill-rule:nonzero;"/>
    </g>
    <g transform="matrix(0.55,0,0,0.55,1.73205,1.73205)">
        <path d="M20,30L20,60L60,90L100,60L100,30L80,20L60,30L40,20L20,30Z" style="fill:none;stroke:rgb(214,2,21);stroke-width:3.64px;"/>
        <path d="M10,25L10,65L60,95L110,65L110,25L80,10L60,25L40,10L10,25Z" style="fill:none;stroke:rgb(214,2,21);stroke-width:3.64px;"/>
        <path d="M0,20L0,70L60,100L120,70L120,20L80,0L60,19L40,0L0,20Z" style="fill:none;stroke:rgb(214,2,21);stroke-width:3.64px;"/>
        <path d="M40,10L40,0" style="fill:none;stroke:rgb(214,2,21);stroke-width:3.64px;"/>
        <path d="M10,25L0,20" style="fill:none;stroke:rgb(214,2,21);stroke-width:3.64px;"/>
        <path d="M20,30L10,25" style="fill:none;stroke:rgb(214,2,21);stroke-width:3.64px;"/>
        <path d="M40,20L40,10" style="fill:none;stroke:rgb(214,2,21);stroke-width:3.64px;"/>
        <path d="M0,70L10,65" style="fill:none;stroke:rgb(214,2,21);stroke-width:3.64px;"/>
        <path d="M10,65L20,60" style="fill:none;stroke:rgb(214,2,21);stroke-width:3.64px;"/>
        <path d="M60,95L60,100" style="fill:none;stroke:rgb(214,2,21);stroke-width:3.64px;"/>
        <g transform="matrix(1,0,0,1,0,-10)">
            <path d="M60,100L60,105" style="fill:none;stroke:rgb(214,2,21);stroke-width:3.64px;"/>
        </g>
        <path d="M100,60L110,65" style="fill:none;stroke:rgb(214,2,21);stroke-width:3.64px;"/>
        <g transform="matrix(1,0,0,1,10,0)">
            <path d="M100,65L110,70" style="fill:none;stroke:rgb(214,2,21);stroke-width:3.64px;"/>
        </g>
        <path d="M100,30L110,25" style="fill:none;stroke:rgb(214,2,21);stroke-width:3.64px;"/>
        <g transform="matrix(1,0,0,1,10,0)">
            <path d="M100,25L110,20" style="fill:none;stroke:rgb(214,2,21);stroke-width:3.64px;"/>
        </g>
        <path d="M80,20L80,10" style="fill:none;stroke:rgb(214,2,21);stroke-width:3.64px;"/>
        <g transform="matrix(1,0,0,1,0,-10)">
            <path d="M80,20L80,10" style="fill:none;stroke:rgb(214,2,21);stroke-width:3.64px;"/>
        </g>
        <path d="M60,30L60,25" style="fill:none;stroke:rgb(214,2,21);stroke-width:3.64px;"/>
        <g transform="matrix(1,0,0,1,0,-10)">
            <path d="M60,35L60,29" style="fill:none;stroke:rgb(214,2,21);stroke-width:3.64px;"/>
        </g>
    </g>
</svg>
