<?xml version="1.0" encoding="UTF-8" standalone="no"?>
<!DOCTYPE svg PUBLIC "-//W3C//DTD SVG 1.1//EN" "http://www.w3.org/Graphics/SVG/1.1/DTD/svg11.dtd">
<svg width="100%" height="100%" viewBox="0 0 515 124" version="1.1" xmlns="http://www.w3.org/2000/svg" xmlns:xlink="http://www.w3.org/1999/xlink" xml:space="preserve" xmlns:serif="http://www.serif.com/" style="fill-rule:evenodd;clip-rule:evenodd;stroke-linejoin:round;stroke-miterlimit:1.41421;">
    <g transform="matrix(0.977444,0,0,1.17431,-37.0793,-438.528)">
        <path d="M562,400C562,385.65 548.003,374 530.763,374L327.237,374C309.997,374 296,385.65 296,400L296,452C296,466.35 309.997,478 327.237,478L530.763,478C548.003,478 562,466.35 562,452L562,400Z" style="fill:rgb(207,60,37);"/>
    </g>
    <g transform="matrix(1,0,0,1,-6.14608,-218.847)">
        <path d="M322.358,261.062L299.702,261.062L299.702,273.158L320.342,273.158L320.342,289.094L299.702,289.094L299.702,317.51L280.886,317.51L280.886,245.126L322.358,245.126L322.358,261.062Z" style="fill:white;fill-rule:nonzero;"/>
        <rect x="327.158" y="237.83" width="17.376" height="79.68" style="fill:white;fill-rule:nonzero;"/>
        <path d="M368.054,292.646C368.054,294.31 368.358,295.83 368.966,297.206C369.574,298.582 370.374,299.782 371.366,300.806C372.358,301.83 373.542,302.63 374.918,303.206C376.294,303.782 377.75,304.07 379.286,304.07C380.822,304.07 382.278,303.782 383.654,303.206C385.03,302.63 386.214,301.83 387.206,300.806C388.198,299.782 388.998,298.582 389.606,297.206C390.214,295.83 390.518,294.342 390.518,292.742C390.518,291.206 390.214,289.75 389.606,288.374C388.998,286.998 388.198,285.798 387.206,284.774C386.214,283.75 385.03,282.95 383.654,282.374C382.278,281.798 380.822,281.51 379.286,281.51C377.75,281.51 376.294,281.798 374.918,282.374C373.542,282.95 372.358,283.75 371.366,284.774C370.374,285.798 369.574,286.982 368.966,288.326C368.358,289.67 368.054,291.11 368.054,292.646ZM349.718,292.454C349.718,288.806 350.454,285.398 351.926,282.23C353.398,279.062 355.446,276.31 358.07,273.974C360.694,271.638 363.814,269.798 367.43,268.454C371.046,267.11 374.998,266.438 379.286,266.438C383.51,266.438 387.43,267.094 391.046,268.406C394.662,269.718 397.798,271.542 400.454,273.878C403.11,276.214 405.174,278.998 406.646,282.23C408.118,285.462 408.854,289.03 408.854,292.934C408.854,296.838 408.102,300.406 406.598,303.638C405.094,306.87 403.03,309.654 400.406,311.99C397.782,314.326 394.63,316.134 390.95,317.414C387.27,318.694 383.286,319.334 378.998,319.334C374.774,319.334 370.87,318.694 367.286,317.414C363.702,316.134 360.614,314.31 358.022,311.942C355.43,309.574 353.398,306.742 351.926,303.446C350.454,300.15 349.718,296.486 349.718,292.454Z" style="fill:white;fill-rule:nonzero;"/>
        <path d="M424.982,268.262L436.79,294.182L449.078,268.262L460.022,268.262L472.31,294.95L484.694,268.262L503.99,268.262L478.262,317.51L466.646,317.51L454.358,290.534L442.646,317.51L430.838,317.51L405.59,268.262L424.982,268.262Z" style="fill:white;fill-rule:nonzero;"/>
    </g>
    <g transform="matrix(1,0,0,1,-234.203,-174.504)">
        <path d="M255.775,233.135L259.327,233.135C263.039,233.135 265.887,232.367 267.871,230.831C269.855,229.295 270.847,227.087 270.847,224.207C270.847,221.327 269.855,219.119 267.871,217.583C265.887,216.047 263.039,215.279 259.327,215.279L255.775,215.279L255.775,233.135ZM297.151,273.167L273.727,273.167L255.775,245.327L255.775,273.167L236.959,273.167L236.959,200.783L266.239,200.783C270.271,200.783 273.791,201.375 276.799,202.559C279.807,203.743 282.287,205.359 284.239,207.407C286.191,209.455 287.663,211.823 288.655,214.511C289.647,217.199 290.143,220.079 290.143,223.151C290.143,228.655 288.815,233.119 286.159,236.543C283.503,239.967 279.583,242.287 274.399,243.503L297.151,273.167Z" style="fill-rule:nonzero;"/>
        <path d="M315.487,223.919L315.487,251.663C315.487,257.743 318.431,260.783 324.319,260.783C330.207,260.783 333.151,257.743 333.151,251.663L333.151,223.919L350.527,223.919L350.527,255.023C350.527,261.679 348.335,266.671 343.951,269.999C339.567,273.327 333.023,274.991 324.319,274.991C315.615,274.991 309.071,273.327 304.687,269.999C300.303,266.671 298.111,261.679 298.111,255.023L298.111,223.919L315.487,223.919Z" style="fill-rule:nonzero;"/>
        <path d="M396.799,248.687C396.799,247.151 396.511,245.695 395.935,244.319C395.359,242.943 394.559,241.743 393.535,240.719C392.511,239.695 391.327,238.879 389.983,238.271C388.639,237.663 387.167,237.359 385.567,237.359C384.031,237.359 382.591,237.647 381.247,238.223C379.903,238.799 378.735,239.599 377.743,240.623C376.751,241.647 375.951,242.847 375.343,244.223C374.735,245.599 374.431,247.055 374.431,248.591C374.431,250.127 374.719,251.567 375.295,252.911C375.871,254.255 376.671,255.423 377.695,256.415C378.719,257.407 379.919,258.207 381.295,258.815C382.671,259.423 384.127,259.727 385.663,259.727C387.199,259.727 388.639,259.439 389.983,258.863C391.327,258.287 392.495,257.487 393.487,256.463C394.479,255.439 395.279,254.255 395.887,252.911C396.495,251.567 396.799,250.159 396.799,248.687ZM374.911,193.487L374.911,228.815C379.007,224.527 384.127,222.383 390.271,222.383C393.919,222.383 397.263,223.071 400.303,224.447C403.343,225.823 405.935,227.679 408.079,230.015C410.223,232.351 411.903,235.103 413.119,238.271C414.335,241.439 414.943,244.815 414.943,248.399C414.943,252.047 414.319,255.471 413.071,258.671C411.823,261.871 410.079,264.655 407.839,267.023C405.599,269.391 402.959,271.263 399.919,272.639C396.879,274.015 393.599,274.703 390.079,274.703C383.679,274.703 378.623,272.367 374.911,267.695L374.911,273.167L357.535,273.167L357.535,193.487L374.911,193.487Z" style="fill-rule:nonzero;"/>
        <path d="M435.295,266.447L411.487,223.919L431.647,223.919L444.799,249.167L457.567,223.919L477.535,223.919L437.983,297.743L418.495,297.743L435.295,266.447Z" style="fill-rule:nonzero;"/>
    </g>
</svg>
